<svg xmlns="http://www.w3.org/2000/svg" xmlns:xlink="http://www.w3.org/1999/xlink" version="1.1" width="595.276pt" height="175pt" viewBox="0 0 595.276 175">
<defs>
<clipPath id="clip_0">
<path transform="matrix(1,0,0,-1,0,175)" d="M0 175H595.276V0H0Z"/>
</clipPath>
</defs>
<g id="layer_1" data-name="Layer 1">
<g clip-path="url(#clip_0)">
<path transform="matrix(1,0,0,-1,102.7789,58.4029)" d="M0 0V11.475C0 13.824 1.923 15.749 4.277 15.749 6.623 15.749 8.548 13.824 8.548 11.475V0Z" fill="#2e3092" fill-rule="evenodd"/>
<path transform="matrix(1,0,0,-1,119.3026,31.129502)" d="M0 0V0C2.354 0 4.274-1.921 4.274-4.272V-27.275H-4.272V-4.272C-4.272-1.921-2.351 0 0 0" fill="#2e3092" fill-rule="evenodd"/>
<path transform="matrix(1,0,0,-1,158.5607,70.3014)" d="M0 0 2.534-1.062V1.084L0 .022ZM5.776-3.133C5.776-3.478 5.659-3.733 5.423-3.896 5.185-4.059 4.89-4.059 4.537-3.896L-1.395-1.139C-1.683-1.007-1.893-.844-2.026-.654-2.158-.461-2.223-.236-2.223 .022-2.223 .273-2.158 .496-2.026 .686-1.893 .879-1.683 1.041-1.395 1.174L4.537 3.928C4.9 4.099 5.195 4.106 5.428 3.951 5.661 3.796 5.776 3.553 5.776 3.22 5.776 2.924 5.711 2.699 5.579 2.539 5.446 2.381 5.231 2.238 4.935 2.113L4.094 1.76V-1.725L4.935-2.081C5.231-2.213 5.446-2.349 5.579-2.489 5.711-2.629 5.776-2.845 5.776-3.133M5.866-6.573C5.866-6.898 5.776-7.149 5.601-7.326 5.423-7.502 5.165-7.592 4.825-7.592H-1.097C-1.435-7.592-1.693-7.502-1.87-7.326-2.048-7.149-2.136-6.898-2.136-6.573-2.136-6.25-2.048-5.997-1.87-5.822-1.693-5.644-1.435-5.556-1.097-5.556H4.825C5.165-5.556 5.423-5.641 5.601-5.817 5.776-5.989 5.866-6.242 5.866-6.573M5.876-12.66C5.876-13.11 5.831-13.573 5.739-14.049 5.646-14.525 5.516-14.933 5.346-15.271L4.958-15.692 4.454-15.782 3.989-15.594 3.713-15.184 3.786-14.608C3.926-14.327 4.031-14.009 4.101-13.656 4.171-13.303 4.206-12.97 4.206-12.66 4.206-12.174 4.141-11.831 4.011-11.636L3.53-11.343 3.12-11.548C3.017-11.686 2.929-11.926 2.854-12.271L2.579-13.569C2.276-14.971 1.542-15.669 .376-15.669-.133-15.669-.578-15.531-.961-15.256-1.347-14.978-1.643-14.592-1.853-14.099-2.063-13.604-2.168-13.03-2.168-12.372-2.168-11.989-2.126-11.6-2.041-11.205-1.958-10.809-1.83-10.469-1.66-10.181L-1.179-9.76-.586-9.783-.165-10.176C-.078-10.364-.093-10.601-.21-10.89-.305-11.11-.378-11.355-.426-11.621-.473-11.886-.498-12.144-.498-12.394-.498-12.807-.426-13.125-.283-13.346-.138-13.569 .048-13.679 .278-13.679L.676-13.478C.779-13.346 .866-13.11 .941-12.77L1.217-11.488C1.52-10.063 2.236-9.352 3.365-9.352 3.873-9.352 4.317-9.487 4.692-9.76 5.07-10.033 5.361-10.419 5.566-10.912 5.774-11.405 5.876-11.989 5.876-12.66M5.711-21.801C5.711-22.51 5.361-22.863 4.66-22.863H-1.039C-1.74-22.863-2.091-22.51-2.091-21.801V-18.051C-2.091-17.52-1.833-17.254-1.317-17.254-.786-17.254-.521-17.52-.521-18.051V-20.917H.964V-18.293C.964-17.763 1.224-17.497 1.75-17.497 2.273-17.497 2.534-17.763 2.534-18.293V-20.917H4.139V-18.051C4.139-17.52 4.402-17.254 4.925-17.254 5.448-17.254 5.711-17.52 5.711-18.051ZM5.834-30.988C5.834-31.621 5.511-31.939 4.87-31.939H-1.162C-1.487-31.939-1.735-31.857-1.908-31.694-2.081-31.534-2.168-31.318-2.168-31.053-2.168-30.818-2.123-30.635-2.036-30.505L-1.592-30.056 2.401-26.859H-1.217C-1.85-26.859-2.168-26.546-2.168-25.918-2.168-25.609-2.086-25.374-1.921-25.216-1.753-25.056-1.52-24.979-1.217-24.979H4.915C5.195-24.979 5.418-25.051 5.584-25.199 5.749-25.347 5.834-25.547 5.834-25.797 5.834-26.048 5.789-26.246 5.701-26.388L5.258-26.849 1.262-30.046H4.87C5.511-30.046 5.834-30.359 5.834-30.988M3.29-37.365C3.4-36.799 3.285-36.316 2.945-35.916 2.606-35.515 2.078-35.247 1.36-35.107 .643-34.969 .055-35.022-.406-35.262-.866-35.505-1.152-35.91-1.262-36.484-1.372-37.055-1.259-37.54-.924-37.936-.586-38.332-.058-38.599 .659-38.737 1.375-38.875 1.965-38.825 2.429-38.584 2.894-38.342 3.18-37.936 3.29-37.365M4.965-37.688C4.815-38.462 4.519-39.11 4.076-39.629 3.633-40.149 3.085-40.515 2.426-40.725 1.77-40.936 1.047-40.966 .258-40.813-.541-40.658-1.202-40.362-1.73-39.927-2.258-39.491-2.629-38.948-2.842-38.297-3.055-37.648-3.085-36.935-2.935-36.161-2.784-35.385-2.491-34.736-2.051-34.218-1.613-33.697-1.067-33.331-.413-33.119 .24-32.908 .964-32.878 1.763-33.034 2.551-33.186 3.212-33.482 3.743-33.922 4.274-34.363 4.647-34.909 4.865-35.555 5.08-36.201 5.113-36.912 4.965-37.688M-.2-47.506-4.302-45.643-3.864-44.676C-3.546-43.978-3.14-43.532-2.649-43.344-2.158-43.151-1.567-43.214-.874-43.529-.183-43.842 .255-44.246 .441-44.741 .626-45.235 .558-45.833 .24-46.539ZM.899-49.073 1.795-47.098C2.354-45.868 2.476-44.774 2.163-43.815 1.848-42.854 1.129-42.117 0-41.604-1.129-41.091-2.156-41.036-3.082-41.432-4.009-41.829-4.75-42.643-5.308-43.873L-6.205-45.848C-6.497-46.494-6.325-46.96-5.689-47.25L-.498-49.606C.14-49.897 .606-49.719 .899-49.073M-3.949-56.823C-4.324-57.333-4.772-57.398-5.288-57.018L-10.148-53.447C-10.409-53.255-10.561-53.042-10.606-52.809-10.649-52.576-10.591-52.351-10.436-52.138L-10.003-51.775C-9.855-51.722-9.65-51.69-9.382-51.675L-4.269-51.464-7.184-49.321C-7.697-48.946-7.764-48.505-7.394-47.999-7.211-47.749-7.006-47.611-6.778-47.581-6.55-47.551-6.315-47.626-6.069-47.806L-1.129-51.437-.721-52.01-.874-52.641-1.332-53.039C-1.49-53.102-1.698-53.137-1.961-53.147L-7.073-53.357-4.169-55.493C-3.651-55.874-3.578-56.317-3.949-56.823M-6.64-59.805C-6.41-59.567-6.3-59.324-6.307-59.076-6.312-58.828-6.44-58.585-6.683-58.35L-10.944-54.239C-11.19-54.003-11.435-53.888-11.685-53.893-11.936-53.898-12.174-54.016-12.399-54.251-12.624-54.484-12.735-54.724-12.732-54.977-12.727-55.225-12.602-55.468-12.359-55.706L-8.097-59.815C-7.852-60.05-7.604-60.168-7.354-60.163-7.103-60.158-6.866-60.037-6.64-59.805M-13.586-65.806C-14.33-66.297-15.056-66.575-15.759-66.64-16.463-66.705-17.114-66.578-17.712-66.255-18.313-65.934-18.831-65.441-19.27-64.775-19.723-64.084-19.973-63.39-20.021-62.694-20.068-61.995-19.916-61.332-19.56-60.703-19.207-60.073-18.651-59.509-17.893-59.011-17.585-58.808-17.249-58.63-16.891-58.478-16.533-58.327-16.145-58.23-15.732-58.187L-15.201-58.28-14.868-58.665-14.773-59.164-14.953-59.622C-15.063-59.757-15.236-59.842-15.466-59.88-15.967-59.952-16.453-60.145-16.929-60.456-17.552-60.866-17.905-61.337-17.993-61.87-18.078-62.404-17.915-62.984-17.502-63.613-17.089-64.244-16.623-64.617-16.105-64.735-15.584-64.852-15.023-64.712-14.42-64.316-14.134-64.129-13.846-63.878-13.551-63.56L-14.227-62.534-14.873-62.959C-15.311-63.247-15.662-63.19-15.925-62.789-16.185-62.396-16.095-62.053-15.657-61.765L-14.289-60.866C-13.844-60.576-13.476-60.651-13.185-61.094L-11.841-63.14-11.648-63.686-11.831-64.204C-12.061-64.497-12.326-64.782-12.627-65.058-12.927-65.336-13.245-65.584-13.586-65.806M-24.378-71.205C-23.794-70.979-23.616-70.566-23.849-69.968L-25.154-66.605-20.727-69.172-20.139-69.42C-19.973-69.449-19.773-69.42-19.538-69.327-19.305-69.237-19.149-69.089-19.072-68.879-18.994-68.671-19.007-68.438-19.107-68.175L-21.325-62.459C-21.435-62.178-21.593-61.988-21.801-61.89-22.009-61.793-22.257-61.8-22.547-61.913-23.131-62.141-23.308-62.549-23.081-63.14L-21.771-66.515-26.198-63.946C-26.431-63.816-26.623-63.731-26.776-63.696L-27.335-63.771C-27.582-63.866-27.75-64.024-27.838-64.244-27.928-64.464-27.913-64.727-27.795-65.03L-25.614-70.651C-25.382-71.25-24.968-71.435-24.378-71.205M-30.687-72.797C-31.801-73.018-32.71-72.902-33.411-72.454-34.113-72.008-34.573-71.222-34.796-70.1L-35.482-66.615C-35.547-66.29-35.51-66.022-35.369-65.814-35.232-65.606-35.001-65.471-34.683-65.408-34.365-65.346-34.1-65.383-33.892-65.523-33.684-65.661-33.549-65.894-33.484-66.222L-32.793-69.727C-32.683-70.286-32.477-70.681-32.174-70.914-31.874-71.147-31.488-71.217-31.018-71.124-30.555-71.035-30.227-70.824-30.036-70.491-29.846-70.161-29.806-69.718-29.916-69.159L-30.607-65.654C-30.672-65.328-30.637-65.06-30.499-64.852-30.364-64.647-30.136-64.512-29.818-64.449-29.5-64.384-29.24-64.424-29.04-64.564-28.839-64.707-28.707-64.94-28.642-65.265L-27.956-68.751C-27.733-69.872-27.855-70.771-28.319-71.45-28.782-72.128-29.573-72.577-30.687-72.797M-39.891-71.863C-40.475-71.856-40.923-71.643-41.243-71.227-41.559-70.814-41.714-70.241-41.702-69.51-41.689-68.779-41.519-68.215-41.186-67.815-40.855-67.414-40.4-67.219-39.816-67.229-39.233-67.236-38.782-67.446-38.464-67.859-38.146-68.27-37.993-68.841-38.006-69.57-38.019-70.301-38.191-70.867-38.527-71.272-38.86-71.675-39.315-71.873-39.891-71.863M-39.919-73.568C-39.13-73.581-38.437-73.426-37.836-73.098-37.237-72.772-36.767-72.309-36.424-71.71-36.083-71.112-35.905-70.409-35.893-69.605-35.878-68.794-36.033-68.085-36.356-67.479-36.676-66.87-37.132-66.397-37.721-66.054-38.309-65.714-38.998-65.536-39.789-65.523-40.577-65.511-41.273-65.666-41.877-65.986-42.478-66.31-42.949-66.768-43.287-67.364-43.627-67.96-43.802-68.663-43.815-69.475-43.827-70.281-43.672-70.987-43.352-71.598-43.029-72.209-42.573-72.684-41.985-73.03-41.396-73.375-40.708-73.556-39.919-73.568M-48.179-72.522C-48.497-72.447-48.72-72.299-48.85-72.084-48.98-71.866-49.008-71.593-48.928-71.262L-48.352-68.828-49.711-65.346-49.731-64.737-49.346-64.261C-49.156-64.146-48.918-64.124-48.63-64.191L-48.117-64.472C-47.976-64.612-47.859-64.81-47.768-65.065L-46.912-67.306-45.139-65.679-44.561-65.308-43.968-65.295C-43.695-65.361-43.499-65.478-43.379-65.651L-43.259-66.225-43.61-66.813-46.371-69.299-46.947-71.733C-47.107-72.414-47.521-72.677-48.179-72.522M-58.432-68.949C-59.011-68.686-59.166-68.263-58.901-67.679L-56.407-62.188C-56.272-61.893-56.096-61.698-55.876-61.608-55.656-61.517-55.425-61.527-55.185-61.637L-54.739-61.983C-54.659-62.118-54.584-62.314-54.516-62.572L-53.254-67.532-51.76-64.236C-51.497-63.661-51.081-63.5-50.51-63.761-50.227-63.889-50.047-64.061-49.972-64.276-49.897-64.494-49.922-64.74-50.047-65.015L-52.581-70.599C-52.696-70.852-52.856-71.027-53.059-71.117-53.262-71.205-53.477-71.2-53.708-71.094-53.935-70.992-54.096-70.869-54.191-70.729-54.286-70.589-54.364-70.391-54.426-70.136L-55.686-65.175-57.178-68.46C-57.443-69.046-57.862-69.209-58.432-68.949M-61.955-66.973C-61.677-67.153-61.414-67.214-61.174-67.158-60.934-67.103-60.721-66.933-60.538-66.648L-57.343-61.663C-57.16-61.377-57.095-61.112-57.148-60.866-57.2-60.623-57.366-60.413-57.639-60.238-57.912-60.062-58.169-60.003-58.415-60.055-58.66-60.108-58.873-60.278-59.056-60.563L-62.251-65.549C-62.434-65.834-62.499-66.099-62.446-66.345-62.393-66.588-62.228-66.798-61.955-66.973M-66.915-63.508C-67.156-63.335-67.286-63.135-67.309-62.907-67.329-62.679-67.261-62.461-67.101-62.259L-66.648-61.955-66.107-62.073-65.849-62.248-65.265-62.464-64.767-62.128-61.948-58.56C-61.742-58.3-61.515-58.155-61.264-58.125-61.016-58.097-60.766-58.182-60.511-58.385-60.255-58.585-60.112-58.811-60.085-59.058-60.055-59.306-60.143-59.562-60.35-59.822L-63.15-63.365C-64.091-64.557-65.238-64.682-66.587-63.736ZM-72.767-57.796C-72.326-58.302-71.863-58.67-71.382-58.908-70.902-59.144-70.428-59.239-69.965-59.196-69.504-59.153-69.081-58.966-68.698-58.63-67.847-57.887-67.779-56.88-68.49-55.608L-69.129-54.462C-69.297-54.156-69.384-53.921-69.394-53.753L-69.226-53.34C-69.054-53.189-68.841-53.149-68.588-53.222-68.333-53.295-68.07-53.485-67.797-53.796-67.632-53.983-67.479-54.193-67.341-54.426-67.203-54.657-67.096-54.887-67.023-55.117-66.92-55.41-66.775-55.601-66.585-55.683L-66.009-55.701-65.551-55.328C-65.436-55.15-65.408-54.94-65.466-54.694-65.526-54.366-65.656-54.026-65.851-53.673-66.049-53.32-66.272-52.999-66.525-52.711-66.958-52.218-67.416-51.853-67.899-51.62-68.385-51.387-68.861-51.292-69.332-51.337-69.802-51.382-70.231-51.572-70.614-51.908-71.49-52.676-71.58-53.688-70.884-54.94L-70.241-56.096C-70.065-56.407-69.975-56.647-69.963-56.817L-70.135-57.241C-70.278-57.366-70.463-57.398-70.691-57.338-70.917-57.276-71.189-57.06-71.51-56.695-71.715-56.462-71.906-56.189-72.088-55.876-72.269-55.563-72.399-55.255-72.477-54.952L-72.802-54.471-73.28-54.346-73.753-54.512-74.074-54.91-74.089-55.481C-73.994-55.849-73.824-56.242-73.578-56.66-73.335-57.078-73.065-57.459-72.767-57.796M-77.847-50.217C-78.208-49.609-78.088-49.126-77.484-48.768L-72.579-45.863C-71.978-45.505-71.495-45.63-71.134-46.241L-69.221-49.469C-68.951-49.924-69.039-50.285-69.482-50.548-69.94-50.818-70.303-50.726-70.574-50.27L-72.036-47.804-73.31-48.56-71.973-50.816C-71.703-51.271-71.793-51.635-72.244-51.902-72.694-52.168-73.055-52.073-73.325-51.617L-74.662-49.361-76.044-50.177-74.582-52.644C-74.312-53.102-74.402-53.462-74.853-53.73-75.303-53.998-75.664-53.903-75.934-53.445ZM-80.471-44.696C-80.233-45.322-79.93-45.831-79.562-46.221-79.194-46.609-78.784-46.865-78.336-46.988-77.887-47.108-77.424-47.077-76.948-46.897-75.894-46.499-75.476-45.578-75.699-44.14L-75.897-42.841C-75.947-42.498-75.949-42.245-75.899-42.085L-75.596-41.757-74.958-41.87C-74.745-42.025-74.565-42.298-74.417-42.683-74.329-42.919-74.259-43.167-74.209-43.432-74.162-43.697-74.142-43.95-74.152-44.193-74.162-44.504-74.091-44.732-73.941-44.874L-73.408-45.094-72.847-44.904C-72.677-44.777-72.577-44.589-72.547-44.341-72.489-44.01-72.491-43.647-72.552-43.247-72.612-42.848-72.712-42.47-72.847-42.11-73.08-41.497-73.383-40.996-73.753-40.607-74.127-40.222-74.54-39.967-74.998-39.844-75.454-39.721-75.922-39.749-76.398-39.932-77.487-40.345-77.925-41.259-77.71-42.678L-77.509-43.985C-77.457-44.336-77.452-44.594-77.502-44.759L-77.812-45.094-78.366-44.992C-78.556-44.854-78.736-44.559-78.909-44.103-79.019-43.813-79.104-43.489-79.164-43.134-79.224-42.779-79.239-42.445-79.207-42.132-79.194-41.899-79.239-41.712-79.345-41.569L-79.748-41.284-80.248-41.273-80.689-41.534-80.902-42.065C-80.94-42.443-80.917-42.871-80.834-43.347-80.752-43.825-80.632-44.276-80.471-44.696M-82.995-34.804C-83.058-34.486-83.02-34.22-82.88-34.013-82.74-33.805-82.507-33.669-82.181-33.604L-76.352-32.455C-76.024-32.39-75.759-32.428-75.551-32.568-75.343-32.705-75.208-32.936-75.146-33.254-75.081-33.572-75.121-33.835-75.261-34.043-75.398-34.25-75.631-34.388-75.957-34.451L-78.323-34.919-78.32-34.941-74.89-37.005-74.46-37.378-74.232-37.878C-74.174-38.176-74.209-38.407-74.337-38.577L-74.848-38.87-75.464-38.732-78.295-36.944-80.529-39.867C-80.702-40.097-80.897-40.232-81.112-40.275L-81.706-40.155C-81.886-40.032-82.001-39.829-82.059-39.548-82.106-39.301-82.096-39.093-82.029-38.922L-81.683-38.357-79.242-35.122-79.247-35.102-81.788-35.603C-82.114-35.668-82.379-35.63-82.587-35.495-82.795-35.36-82.93-35.129-82.995-34.804M-83.331-28.286C-83.331-27.149-83.043-26.281-82.467-25.68-81.891-25.079-81.032-24.778-79.888-24.778H-76.335C-76.004-24.778-75.749-24.866-75.571-25.044-75.396-25.222-75.306-25.472-75.306-25.797-75.306-26.12-75.396-26.373-75.571-26.548-75.749-26.726-76.004-26.814-76.335-26.814H-79.91C-80.479-26.814-80.907-26.941-81.195-27.192-81.483-27.442-81.626-27.808-81.626-28.286-81.626-28.759-81.483-29.12-81.195-29.37-80.907-29.623-80.479-29.749-79.91-29.749H-76.335C-76.004-29.749-75.749-29.833-75.571-30.006-75.396-30.182-75.306-30.429-75.306-30.755-75.306-31.081-75.396-31.326-75.571-31.496-75.749-31.666-76.004-31.751-76.335-31.751H-79.888C-81.032-31.751-81.891-31.456-82.467-30.87-83.043-30.284-83.331-29.423-83.331-28.286M-83.341-19.876C-83.341-19.425-83.296-18.962-83.203-18.486-83.11-18.01-82.98-17.605-82.81-17.264L-82.422-16.844-81.919-16.756-81.455-16.944-81.177-17.352-81.25-17.928C-81.39-18.208-81.495-18.526-81.565-18.879-81.636-19.235-81.671-19.565-81.671-19.876-81.671-20.364-81.606-20.704-81.475-20.9L-80.995-21.193-80.586-20.987C-80.481-20.852-80.394-20.609-80.321-20.264L-80.043-18.969C-79.74-17.567-79.007-16.866-77.842-16.866-77.331-16.866-76.886-17.004-76.503-17.282-76.117-17.557-75.822-17.943-75.611-18.438-75.401-18.932-75.296-19.508-75.296-20.164-75.296-20.547-75.338-20.937-75.424-21.33-75.509-21.726-75.636-22.067-75.804-22.355L-76.287-22.775-76.878-22.753-77.299-22.36C-77.387-22.172-77.374-21.934-77.254-21.646-77.159-21.425-77.086-21.183-77.038-20.917-76.991-20.652-76.966-20.391-76.966-20.141-76.966-19.728-77.038-19.41-77.184-19.19-77.326-18.969-77.512-18.857-77.742-18.857L-78.14-19.057C-78.243-19.19-78.333-19.425-78.406-19.766L-78.684-21.05C-78.984-22.472-79.7-23.186-80.829-23.186-81.338-23.186-81.781-23.048-82.156-22.775-82.534-22.502-82.825-22.119-83.033-21.624-83.238-21.13-83.341-20.547-83.341-19.876M-83.263-10.912C-83.263-10.579-83.163-10.316-82.96-10.121-82.757-9.926-82.497-9.828-82.179-9.828-81.868-9.828-81.616-9.926-81.415-10.121-81.217-10.316-81.117-10.579-81.117-10.912-81.117-11.25-81.217-11.518-81.415-11.708-81.616-11.901-81.868-11.996-82.179-11.996-82.497-11.996-82.757-11.901-82.96-11.708-83.163-11.518-83.263-11.25-83.263-10.912M-83.331-5.997C-83.331-5.674-83.241-5.423-83.065-5.246-82.887-5.068-82.632-4.98-82.302-4.98H-77.089V-3.243C-77.089-2.682-76.811-2.401-76.257-2.401-75.704-2.401-75.429-2.682-75.429-3.243V-8.754C-75.429-9.315-75.704-9.595-76.257-9.595-76.811-9.595-77.089-9.315-77.089-8.754V-7.016H-82.302C-82.632-7.016-82.887-6.928-83.065-6.756-83.241-6.583-83.331-6.33-83.331-5.997M-78.981 2.789V1.427C-78.981 .631-78.648 .233-77.985 .233-77.321 .233-76.988 .631-76.988 1.427V2.789ZM-83.331 3.808C-83.331 4.131-83.241 4.382-83.065 4.559-82.887 4.737-82.632 4.825-82.302 4.825H-76.458C-76.125 4.825-75.872 4.737-75.694 4.559-75.516 4.382-75.429 4.129-75.429 3.796V1.074C-75.429 .188-75.656-.496-76.11-.979-76.563-1.463-77.189-1.703-77.985-1.703-78.781-1.703-79.407-1.463-79.86-.979-80.314-.496-80.541 .188-80.541 1.074V2.789H-82.302C-82.632 2.789-82.887 2.877-83.065 3.049-83.241 3.222-83.331 3.475-83.331 3.808" fill="#2e3092" fill-rule="evenodd"/>
<path transform="matrix(1,0,0,-1,124.0812,84.4381)" d="M0 0V0C0-5.719-4.677-10.399-10.396-10.399H-20.797V-3.34H-10.396C-8.558-3.34-7.058-1.835-7.058 0-7.058 1.838-8.558 3.343-10.396 3.343-16.12 3.343-20.797 8.022-20.797 13.741-20.797 19.462-16.12 24.142-10.396 24.142H0V17.079H-10.396C-12.236 17.079-13.739 15.579-13.739 13.741-13.739 11.903-12.236 10.398-10.396 10.398-4.677 10.398 0 5.721 0 0" fill="#2e3092" fill-rule="evenodd"/>
<path transform="matrix(1,0,0,-1,124.0812,96.7337)" d="M0 0V-1.392C0-3.741-1.92-5.664-4.274-5.664-6.623-5.664-8.546-3.741-8.546-1.392V0Z" fill="#2e3092" fill-rule="evenodd"/>
<path transform="matrix(1,0,0,-1,150.1588,96.7337)" d="M0 0H-9.217V-2.587C-9.217-14.207-18.729-23.719-30.352-23.719-41.972-23.719-51.482-14.207-51.482-2.587V2.026 29.686 38.136C-51.482 40.67-53.557 42.748-56.091 42.748-58.628 42.748-60.703 40.67-60.703 38.136V29.686 2.026-2.587C-60.703-19.282-47.045-32.941-30.352-32.941-13.656-32.941 0-19.282 0-2.587Z" fill="#2e3092" fill-rule="evenodd"/>
<path transform="matrix(1,0,0,-1,150.1588,74.571)" d="M0 0V-.406-1.245-5.446-20.266H-9.217V-5.479L-9.219-5.446V-1.245-.406 4.124 4.211 4.231L-9.217 4.326C-9.167 6.818-7.111 8.838-4.61 8.838-3.075 8.838-1.535 8.821 0 8.821V4.231 4.211Z" fill="#2e3092" fill-rule="evenodd"/>
<path transform="matrix(1,0,0,-1,136.336,81.2661)" d="M0 0V34.338C0 36.686-1.925 38.614-4.274 38.614-6.628 38.614-8.548 36.686-8.548 34.338V22.863-4.948-4.965-17.537C-8.548-21.926-12.141-25.514-16.528-25.514-20.917-25.514-24.505-21.926-24.505-17.537V-15.466H-33.051V-17.537C-33.051-26.626-25.617-34.062-16.528-34.062-7.439-34.062 0-26.626 0-17.537V-4.948Z" fill="#2e3092" fill-rule="evenodd"/>
<path transform="matrix(1,0,0,-1,505.9925,78.4172)" d="M0 0H.058L1.427-9.327H-1.385ZM-2.401-16.486-1.81-12.439H1.853L2.444-16.486H5.934L2.138 5.301H-2.096L-5.894-16.486ZM-8.15 5.301H-11.625V-16.487999H-8.15ZM-24.723 .393C-24.723-1.017-24.465-2.194-23.929-3.15-23.401-4.104-22.337-5.241-20.739-6.588-19.5-7.667-18.726-8.488-18.421-9.074-18.12-9.65-17.965-10.436-17.965-11.423-17.965-12.802-18.546-13.499-19.68-13.499-20.802-13.499-21.368-12.772-21.368-11.335V-9.317H-24.843V-11.621C-24.843-13.093-24.375-14.302-23.416-15.294-22.457-16.278-21.213-16.766-19.65-16.766-18.073-16.766-16.813-16.263-15.884-15.261-14.956-14.26-14.49-12.953-14.49-11.335-14.49-9.71-14.758-8.408-15.293-7.424-15.822-6.423-16.931-5.213-18.586-3.786-19.833-2.712-20.604-1.926-20.91-1.395-21.213-.867-21.363-.183-21.363 .668-21.363 1.757-20.729 2.439-19.65 2.439-18.619 2.439-17.97 1.742-17.97 .668V-1.863H-14.545V.576C-14.545 2.043-15.003 3.257-15.914 4.186-16.828 5.11-18.073 5.581-19.65 5.581-21.165 5.581-22.399 5.078-23.323 4.076-24.252 3.092-24.723 1.863-24.723 .393M-26.471 5.301H-35.177V-16.486H-26.471V-13.218H-31.701V-6.838H-27.127V-3.726H-31.701V2.188H-26.471ZM-45.775-16.486V-3.48H-45.68L-44.498-8.358-42.278-16.486H-38.677V5.301H-42.155V-7.309H-42.247L-43.584-2.086-45.547 5.301H-49.251V-16.486ZM-59.299 .668C-59.299 1.742-58.675 2.439-57.591 2.439-56.544 2.439-55.901 1.742-55.901 .668V-11.746C-55.901-12.817-56.559-13.499-57.591-13.499-58.675-13.499-59.299-12.817-59.299-11.746ZM-62.784-11.578C-62.784-13.083-62.313-14.307-61.374-15.294-60.435-16.278-59.179-16.766-57.591-16.766-56.026-16.766-54.779-16.278-53.835-15.294-52.891-14.307-52.426-13.098-52.426-11.626V.425C-52.426 1.893-52.891 3.122-53.835 4.109-54.779 5.095-56.026 5.581-57.591 5.581-59.163 5.581-60.418 5.078-61.374 4.094-62.313 3.107-62.784 1.878-62.784 .393ZM-72.562 2.188H-70.846C-69.812 2.188-69.159 1.495-69.159 .415V-11.443C-69.159-12.522-69.812-13.218-70.846-13.218H-72.562ZM-70.846-16.486C-69.269-16.486-68.01-16.015-67.063-15.071-66.119-14.114-65.653-12.918-65.653-11.47V.14C-65.653 1.612-66.119 2.827-67.081 3.813-68.04 4.797-69.284 5.301-70.846 5.301H-76.039V-16.486ZM-86.636-16.486V-3.48H-86.543L-85.361-8.358-83.14-16.486H-79.54V5.301H-83.015V-7.309H-83.11L-84.447-2.086-86.408 5.301H-90.111V-16.486ZM-93.609 5.301H-97.084V-16.487999H-93.609ZM-115.453-11.6C-115.453-13.108-115.012-14.37-114.121-15.324-113.227-16.278-111.952-16.766-110.26-16.766-108.875-16.781-107.796-16.373-107.05-15.569L-106.852-16.486H-105.094V-4.647H-110.322V-7.532L-108.569-7.787V-11.67C-108.569-12.725-109.228-13.499-110.26-13.499-111.344-13.499-111.967-12.817-111.967-11.746V.716C-111.967 1.79-111.344 2.469-110.26 2.469-109.213 2.469-108.569 1.79-108.569 .716V-1.863H-105.152V.576C-105.152 2.048-105.607 3.257-106.521 4.186-107.433 5.11-108.68 5.581-110.26 5.581-111.832 5.581-113.089 5.078-114.043 4.094-114.982 3.107-115.453 1.878-115.453 .393ZM-125.736-16.486V-3.48H-125.641L-124.459-8.358-122.238-16.486H-118.637V5.301H-122.115V-7.309H-122.208L-123.545-2.086-125.506 5.301H-129.211V-16.486ZM-136.032-11.738C-136.032-12.817-136.67-13.499-137.707-13.499-138.803-13.499-139.429-12.817-139.429-11.738V5.301H-142.905V-11.573C-142.905-13.073-142.439-14.302-141.495-15.294-140.551-16.278-139.289-16.766-137.707-16.766-136.152-16.766-134.912-16.278-133.974-15.294-133.017-14.302-132.546-13.088-132.546-11.621V5.301H-136.032ZM-152.797 .668C-152.797 1.742-152.176 2.439-151.092 2.439-150.043 2.439-149.4 1.742-149.4 .668V-11.746C-149.4-12.817-150.058-13.499-151.092-13.499-152.176-13.499-152.797-12.817-152.797-11.746ZM-156.283-11.578C-156.283-13.083-155.812-14.307-154.873-15.294-153.934-16.278-152.68-16.766-151.092-16.766-149.525-16.766-148.281-16.278-147.337-15.294-146.393-14.307-145.924-13.098-145.924-11.626V.425C-145.924 1.893-146.393 3.122-147.337 4.109-148.281 5.095-149.525 5.581-151.092 5.581-152.662 5.581-153.919 5.078-154.873 4.094-155.812 3.107-156.283 1.878-156.283 .393ZM-164.703-7.459-164.733-16.486H-161.248L-161.218-7.459-157.452 5.301H-160.947L-162.961-2.416-165.004 5.301H-168.502ZM-177.869-16.486V-3.48H-177.776L-176.594-8.358-174.373-16.486H-170.773V5.301H-174.248V-7.309H-174.341L-175.68-2.086-177.641 5.301H-181.344V-16.486ZM-184.842 5.301H-188.317V-16.487999H-184.842ZM-195.138-11.738C-195.138-12.817-195.799-13.499-196.83-13.499-197.914-13.499-198.535-12.817-198.535-11.738V-9.312H-202.023V-11.621C-202.023-13.088-201.55-14.302-200.611-15.294-199.657-16.278-198.403-16.766-196.83-16.766-195.248-16.766-193.988-16.278-193.059-15.294-192.13-14.302-191.662-13.063-191.662-11.573V5.301H-195.138ZM-218.847 .393C-218.847-1.017-218.586-2.194-218.053-3.15-217.522-4.104-216.46-5.241-214.86-6.588-213.621-7.667-212.85-8.488-212.542-9.074-212.241-9.65-212.086-10.436-212.086-11.423-212.086-12.802-212.667-13.499-213.804-13.499-214.923-13.499-215.489-12.772-215.489-11.335V-9.317H-218.964V-11.621C-218.964-13.093-218.498-14.302-217.537-15.294-216.578-16.278-215.334-16.766-213.771-16.766-212.196-16.766-210.934-16.263-210.005-15.261-209.077-14.26-208.611-12.953-208.611-11.335-208.611-9.71-208.881-8.408-209.415-7.424-209.943-6.423-211.055-5.213-212.71-3.786-213.954-2.712-214.728-1.926-215.033-1.395-215.334-.867-215.484-.183-215.484 .668-215.484 1.757-214.85 2.439-213.771 2.439-212.74 2.439-212.091 1.742-212.091 .668V-1.863H-208.668V.576C-208.668 2.043-209.124 3.257-210.038 4.186-210.949 5.11-212.196 5.581-213.771 5.581-215.286 5.581-216.52 5.078-217.444 4.076-218.373 3.092-218.847 1.863-218.847 .393M-220.594 5.301H-229.298V-16.486H-220.594V-13.218H-225.822V-6.838H-221.248V-3.726H-225.822V2.188H-220.594ZM-242.398 .393C-242.398-1.017-242.137-2.194-241.604-3.15-241.073-4.104-240.012-5.241-238.412-6.588-237.172-7.667-236.401-8.488-236.093-9.074-235.793-9.65-235.637-10.436-235.637-11.423-235.637-12.802-236.218-13.499-237.355-13.499-238.474-13.499-239.04-12.772-239.04-11.335V-9.317H-242.515V-11.621C-242.515-13.093-242.05-14.302-241.091-15.294-240.129-16.278-238.885-16.766-237.322-16.766-235.748-16.766-234.486-16.263-233.557-15.261-232.628-14.26-232.162-12.953-232.162-11.335-232.162-9.71-232.432-8.408-232.966-7.424-233.494-6.423-234.606-5.213-236.261-3.786-237.505-2.712-238.279-1.926-238.584-1.395-238.885-.867-239.035-.183-239.035 .668-239.035 1.757-238.402 2.439-237.322 2.439-236.291 2.439-235.642 1.742-235.642 .668V-1.863H-232.22V.576C-232.22 2.043-232.675 3.257-233.589 4.186-234.501 5.11-235.748 5.581-237.322 5.581-238.837 5.581-240.072 5.078-240.996 4.076-241.924 3.092-242.398 1.863-242.398 .393M-251.241-16.486V-6.838H-250.921L-246.937-16.486H-243.201L-248.061-5.286-243.762 5.301H-247.258L-250.921-3.726H-251.241V5.301H-254.717V-16.486ZM-261.54-11.738C-261.54-12.817-262.176-13.499-263.215-13.499-264.309-13.499-264.937-12.817-264.937-11.738V5.301H-268.413V-11.573C-268.413-13.073-267.945-14.302-267.001-15.294-266.057-16.278-264.797-16.766-263.215-16.766-261.657-16.766-260.418-16.278-259.479-15.294-258.525-14.302-258.052-13.088-258.052-11.621V5.301H-261.54ZM-281.205 .393C-281.205-1.017-280.945-2.194-280.411-3.15-279.88-4.104-278.819-5.241-277.221-6.588-275.982-7.667-275.208-8.488-274.903-9.074-274.6-9.65-274.445-10.436-274.445-11.423-274.445-12.802-275.025-13.499-276.162-13.499-277.284-13.499-277.847-12.772-277.847-11.335V-9.317H-281.325V-11.621C-281.325-13.093-280.857-14.302-279.898-15.294-278.939-16.278-277.692-16.766-276.132-16.766-274.555-16.766-273.293-16.263-272.366-15.261-271.437-14.26-270.969-12.953-270.969-11.335-270.969-9.71-271.24-8.408-271.773-7.424-272.304-6.423-273.413-5.213-275.068-3.786-276.312-2.712-277.086-1.926-277.392-1.395-277.692-.867-277.842-.183-277.842 .668-277.842 1.757-277.211 2.439-276.132 2.439-275.098 2.439-274.45 1.742-274.45 .668V-1.863H-271.027V.576C-271.027 2.043-271.482 3.257-272.396 4.186-273.31 5.11-274.555 5.581-276.132 5.581-277.647 5.581-278.881 5.078-279.803 4.076-280.732 3.092-281.205 1.863-281.205 .393M-288.862-12.907H-292.337V-16.487999H-288.862ZM-301.674 2.188V-16.486H-298.219V2.188H-294.894V5.301H-305.017V2.188ZM-313.342 2.188H-311.619C-310.783 2.188-310.255 1.552-310.255 .591V-2.143C-310.255-3.133-310.815-3.726-311.682-3.726H-313.342ZM-316.817-16.486H-313.342V-6.838H-310.753C-309.689-6.838-308.797-6.458-308.051-5.711-307.308-4.97-306.924-4.061-306.924-3.015V1.477C-306.924 2.526-307.308 3.433-308.051 4.176-308.797 4.922-309.704 5.301-310.753 5.301H-316.817Z" fill="#2e3092" fill-rule="evenodd"/>
<path transform="matrix(1,0,0,-1,182.2161,100.0142)" d="M0 0H336.67C337.314 0 337.839-.526 337.839-1.172 337.839-1.816 337.314-2.341 336.67-2.341H0C-.644-2.341-1.169-1.816-1.169-1.172-1.169-.526-.644 0 0 0" fill="#2e3092" fill-rule="evenodd"/>
<path transform="matrix(1,0,0,-1,259.7376,120.1033)" d="M0 0H2.334L1.199 7.742H1.147ZM-3.746-5.939-.593 12.141H2.924L6.077-5.939H3.177L2.687-2.584H-.353L-.844-5.939Z" fill="#2e3092"/>
<path transform="matrix(1,0,0,-1,266.853,126.0427)" d="M0 0V18.08H2.887V2.711H7.023V0Z" fill="#2e3092"/>
<path transform="matrix(1,0,0,-1,275.0396,126.0427)" d="M0 0V18.08H2.887V2.711H7.023V0Z" fill="#2e3092"/>
<path transform="matrix(1,0,0,-1,290.3133,120.1033)" d="M0 0H2.334L1.199 7.742H1.147ZM-3.746-5.939-.593 12.141H2.924L6.077-5.939H3.177L2.687-2.584H-.353L-.844-5.939Z" fill="#2e3092"/>
<path transform="matrix(1,0,0,-1,300.3152,123.331)" d="M0 0H1.575C2.268 0 2.737 .516 2.737 1.309V3.971C2.737 4.765 2.268 5.293 1.575 5.293H0ZM0 7.877H1.375C2.068 7.877 2.534 8.398 2.534 9.191V11.46C2.534 12.254 2.068 12.782 1.375 12.782H0ZM-2.887-2.712V15.368H2.143C3.015 15.368 3.771 15.053 4.387 14.434 5.005 13.819 5.321 13.06 5.321 12.191V9.216C5.321 8.07 4.83 7.186 3.846 6.58 4.968 6.064 5.523 5.193 5.533 3.971V.465C5.533-.403 5.22-1.162 4.602-1.778 3.984-2.396 3.227-2.712 2.359-2.712Z" fill="#2e3092"/>
<path transform="matrix(1,0,0,-1,310.1546,122.120609)" d="M0 0C0-.894 .518-1.465 1.412-1.465 2.268-1.465 2.812-.894 2.812 0V10.326C2.812 11.22 2.281 11.8 1.412 11.8 .518 11.8 0 11.22 0 10.326ZM-2.9 10.098C-2.9 11.332-2.509 12.356-1.728 13.175-.934 13.994 .113 14.409 1.412 14.409 2.712 14.409 3.746 14.007 4.527 13.188 5.308 12.366 5.699 11.345 5.699 10.123V.1C5.699-1.122 5.308-2.133 4.527-2.952 3.746-3.771 2.712-4.174 1.412-4.174 .1-4.174-.947-3.771-1.728-2.952-2.509-2.133-2.9-1.109-2.9 .138Z" fill="#2e3092"/>
<path transform="matrix(1,0,0,-1,323.2337,107.9631)" d="M0 0H2.9V-14.057C2.9-15.281 2.509-16.29 1.715-17.109 .934-17.928-.103-18.331-1.387-18.331-2.699-18.331-3.746-17.928-4.527-17.109-5.308-16.29-5.699-15.269-5.699-14.022V0H-2.812V-14.157C-2.812-15.053-2.296-15.622-1.387-15.622-.528-15.622 0-15.053 0-14.157Z" fill="#2e3092"/>
<path transform="matrix(1,0,0,-1,326.8941,110.5476)" d="M0 0V2.584H8.398V0H5.636V-15.494H2.774V0Z" fill="#2e3092"/>
<path transform="matrix(1,0,0,-1,341.1971,108.9583)" d="M0 0C.769 .831 1.79 1.247 3.052 1.247 4.362 1.247 5.396 .856 6.155 .087 6.908-.681 7.289-1.69 7.289-2.912V-4.945H4.449V-2.837C4.449-1.941 3.908-1.362 3.052-1.362 2.156-1.362 1.625-1.931 1.625-2.837 1.625-3.543 1.753-4.112 2.006-4.552 2.256-4.993 2.899-5.649 3.934-6.543 5.308-7.729 6.227-8.739 6.67-9.57 7.111-10.389 7.339-11.473 7.339-12.822 7.339-14.172 6.946-15.256 6.177-16.09 5.408-16.921 4.362-17.337 3.052-17.337 1.753-17.337 .719-16.934-.075-16.115-.869-15.294-1.259-14.285-1.259-13.063V-11.145H1.625V-12.822C1.625-14.022 2.093-14.628 3.025-14.628 3.971-14.628 4.449-14.044 4.449-12.897 4.449-12.079 4.324-11.423 4.071-10.945 3.821-10.454 3.177-9.77 2.143-8.876 .819-7.755-.063-6.811-.503-6.014-.944-5.221-1.159-4.237-1.159-3.065-1.159-1.841-.769-.819 0 0" fill="#2e3092"/>
<path transform="matrix(1,0,0,-1,352.9644,115.4526)" d="M0 0H1.375C2.093 0 2.559 .491 2.559 1.312V3.583C2.559 4.374 2.118 4.905 1.425 4.905H0ZM-2.887 7.489H2.143C3.015 7.489 3.771 7.174 4.387 6.555 5.005 5.939 5.321 5.18 5.321 4.314V.593C5.321-.276 5.005-1.034 4.387-1.65 3.771-2.269 3.025-2.584 2.143-2.584H0V-10.589H-2.887Z" fill="#2e3092"/>
<path transform="matrix(1,0,0,-1,362.2096,122.120609)" d="M0 0C0-.894 .518-1.465 1.412-1.465 2.269-1.465 2.812-.894 2.812 0V10.326C2.812 11.22 2.281 11.8 1.412 11.8 .518 11.8 0 11.22 0 10.326ZM-2.9 10.098C-2.9 11.332-2.509 12.356-1.728 13.175-.934 13.994 .113 14.409 1.412 14.409 2.712 14.409 3.746 14.007 4.527 13.188 5.308 12.366 5.699 11.345 5.699 10.123V.1C5.699-1.122 5.308-2.133 4.527-2.952 3.746-3.771 2.712-4.174 1.412-4.174 .1-4.174-.946-3.771-1.728-2.952-2.509-2.133-2.9-1.109-2.9 .138Z" fill="#2e3092"/>
<path transform="matrix(1,0,0,-1,372.6029,110.5476)" d="M0 0V-4.905H1.375C2.093-4.905 2.559-4.414 2.559-3.593V-1.322C2.559-.531 2.118 0 1.425 0ZM5.761-15.494H2.762L.884-7.489H0V-15.494H-2.887V2.584H2.143C3.015 2.584 3.771 2.268 4.387 1.65 5.005 1.034 5.321 .275 5.321-.591V-4.312C5.321-5.521 4.69-6.595 3.646-7.099Z" fill="#2e3092"/>
<path transform="matrix(1,0,0,-1,378.6216,110.5476)" d="M0 0V2.584H8.398V0H5.636V-15.494H2.774V0Z" fill="#2e3092"/>
<path transform="matrix(1,0,0,-1,391.9161,112.022098)" d="M0 0C0 1.234 .391 2.256 1.172 3.077 1.968 3.896 3.015 4.311 4.312 4.311 5.624 4.311 6.658 3.918 7.414 3.152 8.17 2.381 8.548 1.374 8.548 .153V-1.881H5.711V.263C5.711 1.159 5.18 1.725 4.312 1.725 3.418 1.725 2.899 1.159 2.899 .263V-10.098C2.899-10.995 3.418-11.563 4.312-11.563 5.168-11.563 5.711-10.919 5.711-10.023V-6.796L4.261-6.583V-4.187H8.598V-14.022H7.136L6.973-13.278C6.355-13.944 5.458-14.285 4.312-14.272 2.912-14.272 1.853-13.869 1.109-13.075 .366-12.279 0-11.232 0-9.963Z" fill="#2e3092"/>
<path transform="matrix(1,0,0,-1,402.462,126.0427)" d="M0 0V18.08H2.887V2.711H7.023V0Z" fill="#2e3092"/>
<path transform="matrix(1,0,0,-1,413.0178,122.120609)" d="M0 0C0-.894 .518-1.465 1.412-1.465 2.268-1.465 2.812-.894 2.812 0V10.326C2.812 11.22 2.281 11.8 1.412 11.8 .518 11.8 0 11.22 0 10.326ZM-2.899 10.098C-2.899 11.332-2.509 12.356-1.728 13.175-.934 13.994 .113 14.409 1.412 14.409 2.712 14.409 3.746 14.007 4.527 13.188 5.308 12.366 5.699 11.345 5.699 10.123V.1C5.699-1.122 5.308-2.133 4.527-2.952 3.746-3.771 2.712-4.174 1.412-4.174 .1-4.174-.946-3.771-1.728-2.952-2.509-2.133-2.899-1.109-2.899 .138Z" fill="#2e3092"/>
<path transform="matrix(1,0,0,-1,419.3507,107.9631)" d="M0 0H2.9L4.577-12.394H4.602L6.28 0H9.179L6.355-18.08H2.824Z" fill="#2e3092"/>
<path transform="matrix(1,0,0,-1,436.7921,110.5476)" d="M0 0H-4.337V-4.905H-.543V-7.489H-4.337V-12.782H0V-15.494H-7.224V2.584H0Z" fill="#2e3092"/>
<path transform="matrix(1,0,0,-1,438.5733,108.9583)" d="M0 0C.769 .831 1.79 1.247 3.052 1.247 4.362 1.247 5.396 .856 6.154 .087 6.908-.681 7.289-1.69 7.289-2.912V-4.945H4.449V-2.837C4.449-1.941 3.909-1.362 3.052-1.362 2.156-1.362 1.625-1.931 1.625-2.837 1.625-3.543 1.753-4.112 2.006-4.552 2.256-4.993 2.899-5.649 3.934-6.543 5.308-7.729 6.227-8.739 6.67-9.57 7.111-10.389 7.339-11.473 7.339-12.822 7.339-14.172 6.946-15.256 6.177-16.09 5.408-16.921 4.362-17.337 3.052-17.337 1.753-17.337 .719-16.934-.075-16.115-.869-15.294-1.259-14.285-1.259-13.063V-11.145H1.625V-12.822C1.625-14.022 2.093-14.628 3.025-14.628 3.971-14.628 4.449-14.044 4.449-12.897 4.449-12.079 4.324-11.423 4.071-10.945 3.821-10.454 3.177-9.77 2.143-8.876 .819-7.755-.063-6.811-.503-6.014-.944-5.221-1.159-4.237-1.159-3.065-1.159-1.841-.769-.819 0 0" fill="#2e3092"/>
</g>
</g>
</svg>
