<svg id="Layer_1" data-name="Layer 1" xmlns="http://www.w3.org/2000/svg" viewBox="0 0 89.22 112.74"><defs><style>.cls-1{fill:#2e3192;fill-rule:evenodd;}</style></defs><path class="cls-1" d="M101.53,58.65V47.17a4.28,4.28,0,0,1,8.55,0V58.65Z" transform="translate(-73.97 -31.37)"/><path class="cls-1" d="M118.05,31.37h0a4.28,4.28,0,0,1,4.28,4.28v23h-8.55v-23a4.28,4.28,0,0,1,4.27-4.28" transform="translate(-73.97 -31.37)"/><path class="cls-1" d="M74,66.74a1,1,0,0,1,.27-.75,1,1,0,0,1,.76-.27h5.85a1,1,0,0,1,.76.27,1,1,0,0,1,.26.76v2.72a2.88,2.88,0,0,1-.68,2.06,2.8,2.8,0,0,1-3.75,0,2.92,2.92,0,0,1-.68-2.06V67.76H75a1.06,1.06,0,0,1-.76-.26,1,1,0,0,1-.27-.76m4.35,1v1.36c0,.79.33,1.19,1,1.19s1-.4,1-1.19V67.76ZM74,76.54a.92.92,0,0,1,1-1h5.21V73.79a.74.74,0,0,1,.84-.84.73.73,0,0,1,.82.84V79.3a.73.73,0,0,1-.82.84.74.74,0,0,1-.84-.84V77.56H75a1.06,1.06,0,0,1-.76-.26,1,1,0,0,1-.27-.76m.07,4.92a1,1,0,0,1,.3-.79,1.09,1.09,0,0,1,.78-.3,1,1,0,0,1,.77.3,1.08,1.08,0,0,1-.77,1.87,1.08,1.08,0,0,1-.78-.29,1,1,0,0,1-.3-.79m-.08,9A7.53,7.53,0,0,1,74.11,89a4.73,4.73,0,0,1,.39-1.22l.39-.42.5-.09.47.19.28.41-.08.57a3.78,3.78,0,0,0-.31,1,5.26,5.26,0,0,0-.11,1,2,2,0,0,0,.2,1l.48.29.41-.21a1.85,1.85,0,0,0,.26-.72l.28-1.29c.3-1.41,1-2.11,2.2-2.11a2.2,2.2,0,0,1,1.34.42A2.59,2.59,0,0,1,81.7,89,4.41,4.41,0,0,1,82,90.71a6,6,0,0,1-.13,1.17,3.61,3.61,0,0,1-.38,1l-.48.42-.6,0L80,92.91a.93.93,0,0,1,0-.72,3.12,3.12,0,0,0,.21-.73,4.11,4.11,0,0,0,.08-.77,1.75,1.75,0,0,0-.22-1,.65.65,0,0,0-.56-.34l-.4.2a1.92,1.92,0,0,0-.26.71l-.28,1.29c-.3,1.42-1,2.13-2.15,2.13a2.2,2.2,0,0,1-1.32-.41,2.59,2.59,0,0,1-.88-1.15A4.64,4.64,0,0,1,74,90.42m0,8.41a3.6,3.6,0,0,1,.87-2.6,3.37,3.37,0,0,1,2.58-.91H81a.94.94,0,0,1,1,1,1,1,0,0,1-.27.75,1,1,0,0,1-.76.27H77.4a1.9,1.9,0,0,0-1.28.38,1.6,1.6,0,0,0,0,2.18,1.9,1.9,0,0,0,1.28.37H81a1.06,1.06,0,0,1,.76.26,1,1,0,0,1,.27.75,1,1,0,0,1-.27.74,1.06,1.06,0,0,1-.76.26H77.43a3.47,3.47,0,0,1-2.58-.88A3.54,3.54,0,0,1,74,98.83m.34,6.52a1,1,0,0,1,.11-.79,1.07,1.07,0,0,1,.7-.41L81,103a.93.93,0,0,1,1.21.8,1,1,0,0,1-.12.79,1,1,0,0,1-.69.41l-2.37.46v0l3.43,2.06.43.37.23.5a.88.88,0,0,1-.1.7l-.51.3-.62-.14L79,107.49l-2.24,2.92a.94.94,0,0,1-.58.41l-.59-.12a.93.93,0,0,1-.36-.61,1.26,1.26,0,0,1,0-.62l.35-.57,2.44-3.23v0l-2.55.5a1,1,0,0,1-.79-.11,1,1,0,0,1-.41-.69m2.52,9.89a4.53,4.53,0,0,0,.91,1.53,2.61,2.61,0,0,0,1.23.76,2.19,2.19,0,0,0,1.38-.09c1.06-.4,1.48-1.32,1.25-2.75l-.19-1.3a1.92,1.92,0,0,1,0-.76l.31-.33.64.12a1.73,1.73,0,0,1,.54.81,5.11,5.11,0,0,1,.2.75,3.34,3.34,0,0,1,.06.76.86.86,0,0,0,.21.68l.54.22.56-.19a.8.8,0,0,0,.3-.56,3.7,3.7,0,0,0,0-1.1,5.85,5.85,0,0,0-.29-1.13,4.53,4.53,0,0,0-.91-1.51,2.72,2.72,0,0,0-1.24-.76,2.18,2.18,0,0,0-1.4.09c-1.09.41-1.53,1.32-1.32,2.74l.2,1.31a1.8,1.8,0,0,1,0,.77l-.31.34-.55-.1a2.09,2.09,0,0,1-.55-.89,5.08,5.08,0,0,1-.25-1,3.42,3.42,0,0,1,0-1,.93.93,0,0,0-.14-.57l-.4-.28h-.51l-.44.26-.21.53a4.77,4.77,0,0,0,.07,1.28,7,7,0,0,0,.36,1.35m2.63,5.52a.94.94,0,0,1,.36-1.45l4.9-2.9a.94.94,0,0,1,1.45.38L88.09,120a.7.7,0,0,1-.26,1.08.7.7,0,0,1-1.09-.27l-1.46-2.47-1.28.76,1.34,2.25a.78.78,0,1,1-1.35.8l-1.34-2.25-1.38.81,1.46,2.47a.78.78,0,1,1-1.35.8Zm5.08,7.58a4.33,4.33,0,0,0,1.38,1.11,2.62,2.62,0,0,0,1.42.29,2.18,2.18,0,0,0,1.26-.56c.86-.75.92-1.75.21-3L88.18,125a2,2,0,0,1-.26-.71l.17-.41a.65.65,0,0,1,.64-.12,1.79,1.79,0,0,1,.79.57A5.06,5.06,0,0,1,90,125a3,3,0,0,1,.32.69.87.87,0,0,0,.44.57l.57,0,.46-.38a.78.78,0,0,0,.09-.63,3.23,3.23,0,0,0-.39-1,6.08,6.08,0,0,0-.67-1,4.17,4.17,0,0,0-1.38-1.09,2.65,2.65,0,0,0-1.43-.29,2.29,2.29,0,0,0-1.28.57c-.88.77-1,1.78-.27,3l.64,1.15a1.8,1.8,0,0,1,.28.72l-.17.43a.59.59,0,0,1-.56.09,1.93,1.93,0,0,1-.82-.64,6.18,6.18,0,0,1-.58-.82,3.39,3.39,0,0,1-.38-.92l-.33-.48-.48-.13-.47.17-.32.4,0,.57a5.26,5.26,0,0,0,.51,1.18,8,8,0,0,0,.82,1.13m5.85,5.71a.87.87,0,0,1-.4-.6.91.91,0,0,1,.21-.65l.46-.3.54.12.25.17.59.22.5-.34,2.82-3.56a1,1,0,0,1,.68-.44,1,1,0,0,1,.75.26,1,1,0,0,1,.43.67,1,1,0,0,1-.27.77l-2.8,3.54c-.94,1.19-2.08,1.32-3.43.37Zm5,3.47a1,1,0,0,0,.78.18,1,1,0,0,0,.63-.51l3.2-5a1.09,1.09,0,0,0,.2-.8,1.06,1.06,0,0,0-.5-.63,1,1,0,0,0-.77-.18,1,1,0,0,0-.64.51l-3.2,5a1,1,0,0,0-.19.8,1,1,0,0,0,.49.63m3.52,2a.85.85,0,0,1-.47-1.27l2.5-5.49a1.05,1.05,0,0,1,.53-.58.84.84,0,0,1,.69,0l.44.35a2.33,2.33,0,0,1,.23.59l1.26,5,1.49-3.3a.84.84,0,0,1,1.25-.47.88.88,0,0,1,.54.51,1,1,0,0,1-.07.74l-2.54,5.58a.92.92,0,0,1-.48.52.72.72,0,0,1-.64,0,1.15,1.15,0,0,1-.49-.37,1.86,1.86,0,0,1-.23-.59l-1.26-5L100.14,139a.85.85,0,0,1-1.26.48m10.25,3.58a.93.93,0,0,1-.74-1.26l.57-2.44-1.36-3.48,0-.61.39-.47a.89.89,0,0,1,.71-.07l.52.28a1.58,1.58,0,0,1,.34.59l.86,2.24,1.77-1.63.58-.37h.6a.93.93,0,0,1,.58.36l.12.57-.35.59-2.76,2.48-.57,2.44a.93.93,0,0,1-1.24.79m8.26,1a4.06,4.06,0,0,0,2.09-.47,3.53,3.53,0,0,0,1.41-1.38,4.34,4.34,0,0,0,.53-2.11A4.29,4.29,0,0,0,121,138a3.53,3.53,0,0,0-1.37-1.42,4.16,4.16,0,0,0-2.07-.53,4.25,4.25,0,0,0-2.08.46,3.47,3.47,0,0,0-1.41,1.38,4.31,4.31,0,0,0-.53,2.11,4.36,4.36,0,0,0,.46,2.12,3.58,3.58,0,0,0,1.37,1.44,4.17,4.17,0,0,0,2.06.53m0-1.7a1.63,1.63,0,0,1-1.35-.64,2.65,2.65,0,0,1-.46-1.71,2.59,2.59,0,0,1,.52-1.7,1.81,1.81,0,0,1,2.72,0,2.65,2.65,0,0,1,.46,1.71,2.75,2.75,0,0,1-.52,1.7,1.66,1.66,0,0,1-1.37.59m9.21.93a3.63,3.63,0,0,1-2.73-.34,3.4,3.4,0,0,1-1.38-2.35l-.69-3.49a.93.93,0,0,1,.8-1.21,1,1,0,0,1,.79.12,1,1,0,0,1,.41.7l.69,3.5a1.91,1.91,0,0,0,.62,1.19,1.39,1.39,0,0,0,1.16.21,1.36,1.36,0,0,0,1-.63,1.93,1.93,0,0,0,.12-1.34l-.69-3.5a1,1,0,0,1,.1-.8,1,1,0,0,1,.68-.4,1,1,0,0,1,.78.11,1.06,1.06,0,0,1,.4.7l.69,3.49A3.44,3.44,0,0,1,129,142a3.55,3.55,0,0,1-2.36,1.34m6.31-1.59a.84.84,0,0,0,.52-1.24l-1.3-3.36,4.43,2.57.58.25a1.1,1.1,0,0,0,.61-.1.76.76,0,0,0,.46-.45,1,1,0,0,0,0-.7L136,133a.94.94,0,0,0-.48-.56.91.91,0,0,0-.74,0,.84.84,0,0,0-.54,1.23l1.31,3.37-4.42-2.57a2.78,2.78,0,0,0-.58-.25l-.56.08a.78.78,0,0,0-.5.47,1,1,0,0,0,0,.79l2.18,5.62a.85.85,0,0,0,1.24.55m10.79-5.4a4.87,4.87,0,0,1-2.18.84,3.43,3.43,0,0,1-2-.39,4.29,4.29,0,0,1-1.56-1.48,4.36,4.36,0,0,1-.75-2.08,3.51,3.51,0,0,1,.46-2,5,5,0,0,1,1.67-1.69,6.37,6.37,0,0,1,1-.54,4.39,4.39,0,0,1,1.16-.29l.53.1.34.38.09.5-.18.46a.83.83,0,0,1-.51.26,3.63,3.63,0,0,0-1.47.57,2.16,2.16,0,0,0-1.06,1.42,2.51,2.51,0,0,0,.49,1.74,2.36,2.36,0,0,0,1.4,1.12,2.14,2.14,0,0,0,1.68-.42,4.84,4.84,0,0,0,.87-.75l-.67-1-.65.43c-.44.28-.79.23-1.05-.18s-.17-.73.27-1l1.36-.9a.71.71,0,0,1,1.11.23l1.34,2.05.2.54-.19.52a7.5,7.5,0,0,1-1.75,1.6m6.94-6a1,1,0,0,0,.34-.73,1.07,1.07,0,0,0-.38-.72l-4.26-4.12a1,1,0,0,0-.74-.34,1,1,0,0,0-.72.36,1,1,0,0,0-.33.72,1.1,1.1,0,0,0,.37.73l4.27,4.11a.92.92,0,0,0,1.45,0m2.69-3a.85.85,0,0,1-1.34.19L147.16,124a1,1,0,0,1-.45-.64.81.81,0,0,1,.17-.67l.43-.36a2.66,2.66,0,0,1,.62-.1L153,122l-2.91-2.14a.85.85,0,0,1-.21-1.33.91.91,0,0,1,.62-.41,1,1,0,0,1,.7.22l4.94,3.63.41.58-.15.63-.46.4a2,2,0,0,1-.63.1l-5.11.21,2.9,2.14a.84.84,0,0,1,.22,1.33m4.85-7.75.9-2a4.48,4.48,0,0,0,.37-3.28,3.74,3.74,0,0,0-2.17-2.21,3.69,3.69,0,0,0-3.08-.17,4.5,4.5,0,0,0-2.23,2.44l-.89,2a.94.94,0,0,0,.51,1.41l5.19,2.35a.94.94,0,0,0,1.4-.53m-1.1-1.57-4.1-1.86.44-1a2.36,2.36,0,0,1,1.21-1.33,2.84,2.84,0,0,1,3.09,1.4,2.3,2.3,0,0,1-.2,1.79Zm5.17-9.82a4.1,4.1,0,0,1-.89,1.94,3.45,3.45,0,0,1-1.65,1.1,4.75,4.75,0,0,1-4.16-.8,3.41,3.41,0,0,1-1.11-1.63,4.22,4.22,0,0,1-.09-2.13,4.17,4.17,0,0,1,.88-1.95,3.62,3.62,0,0,1,1.64-1.1,4.29,4.29,0,0,1,2.18-.08,4.34,4.34,0,0,1,2,.89,3.55,3.55,0,0,1,1.12,1.63,4.21,4.21,0,0,1,.1,2.13m-1.68-.32a1.64,1.64,0,0,0-.34-1.45,2.68,2.68,0,0,0-1.59-.81,2.65,2.65,0,0,0-1.76.16,1.82,1.82,0,0,0-.52,2.67,2.62,2.62,0,0,0,1.58.8,2.68,2.68,0,0,0,1.77-.15,1.62,1.62,0,0,0,.86-1.22m2.55-6.38a.86.86,0,0,1-1,1h-6a1,1,0,0,1-.74-.25.82.82,0,0,1-.27-.64,1,1,0,0,1,.14-.55l.44-.45,4-3.2H156.1a.84.84,0,0,1-1-.94,1,1,0,0,1,.25-.7,1,1,0,0,1,.71-.24h6.13a1,1,0,0,1,.67.22.79.79,0,0,1,.25.6,1.09,1.09,0,0,1-.14.59l-.44.46-4,3.2h3.6a.85.85,0,0,1,1,.94M163,92.35A.93.93,0,0,1,162,93.41h-5.7a.93.93,0,0,1-1.05-1.06V88.6a.79.79,0,1,1,1.57,0v2.86h1.49V88.84a.79.79,0,1,1,1.57,0v2.62h1.6V88.6a.79.79,0,1,1,1.57,0Zm.17-9.14a7.53,7.53,0,0,1-.14,1.39,4.73,4.73,0,0,1-.39,1.22l-.39.42-.5.09-.47-.19-.27-.41.07-.58a3.65,3.65,0,0,0,.31-1,5.08,5.08,0,0,0,.11-1,2,2,0,0,0-.2-1l-.48-.29-.41.2a2,2,0,0,0-.26.73l-.28,1.29c-.3,1.41-1,2.1-2.2,2.1a2.2,2.2,0,0,1-1.34-.41,2.73,2.73,0,0,1-.89-1.15,4.41,4.41,0,0,1-.32-1.73,5.91,5.91,0,0,1,.13-1.17,3.39,3.39,0,0,1,.38-1l.48-.42.6,0,.42.39a.88.88,0,0,1-.05.72,3.68,3.68,0,0,0-.21.73,4.11,4.11,0,0,0-.08.77,1.78,1.78,0,0,0,.22,1,.65.65,0,0,0,.56.33l.4-.2a1.79,1.79,0,0,0,.26-.7l.28-1.29c.3-1.42,1-2.13,2.15-2.13a2.17,2.17,0,0,1,1.33.41,2.65,2.65,0,0,1,.87,1.15,4.42,4.42,0,0,1,.31,1.75m0-6.09a.94.94,0,0,1-1,1h-5.92a1.06,1.06,0,0,1-.78-.27,1,1,0,0,1-.26-.75,1,1,0,0,1,.26-.75,1.06,1.06,0,0,1,.78-.27h5.92a1.05,1.05,0,0,1,.77.26,1,1,0,0,1,.27.76m-.09-3.44a.8.8,0,0,1-1.24.76l-5.93-2.75a1.56,1.56,0,0,1-.63-.49,1.12,1.12,0,0,1-.2-.68,1.08,1.08,0,0,1,.2-.66,1.48,1.48,0,0,1,.63-.49l5.93-2.75a.89.89,0,0,1,.89,0,.84.84,0,0,1,.35.74,1.06,1.06,0,0,1-.2.68,1.73,1.73,0,0,1-.64.42l-.84.36v3.48l.84.36a2,2,0,0,1,.64.4.94.94,0,0,1,.2.65m-5.78-3.13,2.54,1.06V69.46l-2.54,1.06Z" transform="translate(-73.97 -31.37)"/><path class="cls-1" d="M122.83,84.68h0a10.42,10.42,0,0,1-10.39,10.4H102V88h10.4a3.34,3.34,0,1,0,0-6.68,10.4,10.4,0,1,1,0-20.8h10.39V67.6H112.44a3.34,3.34,0,1,0,0,6.68,10.42,10.42,0,0,1,10.39,10.4" transform="translate(-73.97 -31.37)"/><path class="cls-1" d="M122.83,97v1.39a4.27,4.27,0,0,1-8.54,0V97Z" transform="translate(-73.97 -31.37)"/><path class="cls-1" d="M148.91,97h-9.22v2.58a21.13,21.13,0,1,1-42.26,0V58.84a4.61,4.61,0,0,0-9.22,0V99.56a30.35,30.35,0,1,0,60.7,0Z" transform="translate(-73.97 -31.37)"/><path class="cls-1" d="M148.91,74.82V95.08h-9.22V70.49A4.62,4.62,0,0,1,144.3,66h4.61v8.83Z" transform="translate(-73.97 -31.37)"/><path class="cls-1" d="M135.09,81.51V47.17a4.28,4.28,0,0,0-8.55,0V99.05a8,8,0,0,1-16,0V97H102v2.07a16.53,16.53,0,0,0,33.05,0V81.51Z" transform="translate(-73.97 -31.37)"/></svg>